<svg viewBox="0 0 24 24" fill="#FF5A00" xmlns="http://www.w3.org/2000/svg"><path d="M12 2C10.5 2 9 3.5 9 5c0 1.5 1.5 3 3 3s3-1.5 3-3c0-1.5-1.5-3-3-3zM7.5 10c0-1.5 1.5-3 3-3 .5 0 1 .1 1.5.3-1 .8-1.5 1.8-1.5 2.7v5c0 2.5-2 4.5-4.5 4.5S1.5 17.5 1.5 15c0-2.5 2-4.5 4.5-4.5.5 0 1 .1 1.5.3-.3-.8-.5-1.7-.5-2.7 0-2.5 2-4.5 4.5-4.5.5 0 .9.1 1.3.2C9.8 11.2 9 13.5 9 15.5V17c0 1.5-1.5 3-3 3S3 18.5 3 17c0-1.5 1.5-3 3-3s3 1.5 3 3h1.5c0-2.5-2-4.5-4.5-4.5S1.5 14.5 1.5 17c0 2.5 2 4.5 4.5 4.5S10.5 19.5 10.5 17v-1.5c0-2-1.5-3.5-3.5-3.5s-3.5 1.5-3.5 3.5H5c0-3 2.5-5.5 5.5-5.5z"/></svg>
